<svg width="24" height="24" viewBox="0 0 24 24" fill="none" xmlns="http://www.w3.org/2000/svg">
<path d="M18 21C19.6569 21 21 19.6569 21 18C21 16.3431 19.6569 15 18 15C16.3431 15 15 16.3431 15 18C15 19.6569 16.3431 21 18 21Z" stroke="url(#paint0_linear_1_6673)" stroke-width="2" stroke-linecap="round" stroke-linejoin="round"/>
<path d="M6 9C7.65685 9 9 7.65685 9 6C9 4.34315 7.65685 3 6 3C4.34315 3 3 4.34315 3 6C3 7.65685 4.34315 9 6 9Z" stroke="url(#paint1_linear_1_6673)" stroke-width="2" stroke-linecap="round" stroke-linejoin="round"/>
<path d="M13 6H16C16.5304 6 17.0391 6.21071 17.4142 6.58579C17.7893 6.96086 18 7.46957 18 8V15" stroke="url(#paint2_linear_1_6673)" stroke-width="2" stroke-linecap="round" stroke-linejoin="round"/>
<path d="M6 9V21" stroke="url(#paint3_linear_1_6673)" stroke-width="2" stroke-linecap="round" stroke-linejoin="round"/>
<defs>
<linearGradient id="paint0_linear_1_6673" x1="14.1915" y1="18" x2="21.9114" y2="18.5188" gradientUnits="userSpaceOnUse">
<stop stop-color="#2AD1D1"/>
<stop offset="1" stop-color="#009EE1"/>
</linearGradient>
<linearGradient id="paint1_linear_1_6673" x1="2.19149" y1="6" x2="9.91143" y2="6.51883" gradientUnits="userSpaceOnUse">
<stop stop-color="#2AD1D1"/>
<stop offset="1" stop-color="#009EE1"/>
</linearGradient>
<linearGradient id="paint2_linear_1_6673" x1="12.3262" y1="10.5" x2="18.7796" y2="10.7409" gradientUnits="userSpaceOnUse">
<stop stop-color="#2AD1D1"/>
<stop offset="1" stop-color="#009EE1"/>
</linearGradient>
<linearGradient id="paint3_linear_1_6673" x1="5.86525" y1="15" x2="7.15768" y2="15.0072" gradientUnits="userSpaceOnUse">
<stop stop-color="#2AD1D1"/>
<stop offset="1" stop-color="#009EE1"/>
</linearGradient>
</defs>
</svg>
